<?xml version="1.0" encoding="UTF-8" standalone="no"?>
<!-- Created with Inkscape (http://www.inkscape.org/) -->

<svg
   xmlns:dc="http://purl.org/dc/elements/1.1/"
   xmlns:cc="http://creativecommons.org/ns#"
   xmlns:rdf="http://www.w3.org/1999/02/22-rdf-syntax-ns#"
   xmlns:svg="http://www.w3.org/2000/svg"
   xmlns="http://www.w3.org/2000/svg"
   xmlns:sodipodi="http://sodipodi.sourceforge.net/DTD/sodipodi-0.dtd"
   xmlns:inkscape="http://www.inkscape.org/namespaces/inkscape"
   id="svg2"
   version="1.1"
   inkscape:version="0.48.3.1 r9886"
   width="155.90434"
   height="155.90472"
   xml:space="preserve"
   sodipodi:docname="sticker.EPS"><metadata
     id="metadata8"><rdf:RDF><cc:Work
         rdf:about=""><dc:format>image/svg+xml</dc:format><dc:type
           rdf:resource="http://purl.org/dc/dcmitype/StillImage" /><dc:title></dc:title></cc:Work></rdf:RDF></metadata><defs
     id="defs6" /><sodipodi:namedview
     pagecolor="#ffffff"
     bordercolor="#666666"
     borderopacity="1"
     objecttolerance="10"
     gridtolerance="10"
     guidetolerance="10"
     inkscape:pageopacity="0"
     inkscape:pageshadow="2"
     inkscape:window-width="1301"
     inkscape:window-height="744"
     id="namedview4"
     showgrid="false"
     fit-margin-top="2"
     fit-margin-left="2"
     units="mm"
     fit-margin-right="2"
     fit-margin-bottom="2"
     inkscape:zoom="1.7612403"
     inkscape:cx="77.852727"
     inkscape:cy="48.880263"
     inkscape:window-x="65"
     inkscape:window-y="24"
     inkscape:window-maximized="1"
     inkscape:current-layer="g12" /><g
     id="g10"
     inkscape:groupmode="layer"
     inkscape:label="ink_ext_XXXXXX"
     transform="matrix(1.25,0,0,-1.25,-2.7722733,231.39911)"><g
       id="g12"
       transform="scale(0.1,0.1)"><path
         d="m 328.32,1794.5 634.957,0 c 137.763,0 249.443,-111.68 249.443,-249.45 l 0,-634.952 c 0,-137.77 -111.68,-249.45 -249.443,-249.45 l -634.957,0 c -137.769,0 -249.4489,111.68 -249.4489,249.45 l 0,634.952 c 0,137.77 111.6799,249.45 249.4489,249.45"
         style="fill:#1a3665;fill-opacity:1;fill-rule:nonzero;stroke:none"
         id="path14"
         inkscape:connector-curvature="0" /><path
         d="m 328.32,1749.15 c -112.718,0 -204.093,-91.38 -204.093,-204.1 l 0,-634.952 c 0,-112.719 91.375,-204.094 204.093,-204.094 l 634.957,0 c 112.723,0 204.093,91.375 204.093,204.094 l 0,634.952 c 0,112.72 -91.37,204.1 -204.093,204.1 l -634.957,0"
         style="fill:#9fc9eb;fill-opacity:1;fill-rule:nonzero;stroke:none"
         id="path16"
         inkscape:connector-curvature="0" /><path
         d="m 373.676,1068.84 c -62.625,0 -113.387,-50.77 -113.387,-113.387 0,-62.625 50.762,-113.387 113.387,-113.387 62.621,0 113.383,50.762 113.383,113.387 0,62.617 -50.762,113.387 -113.383,113.387 z m 0,272.12 c -62.625,0 -113.387,-50.76 -113.387,-113.39 0,-62.62 50.762,-113.38 113.387,-113.38 62.621,0 113.383,50.76 113.383,113.38 0,62.63 -50.762,113.39 -113.383,113.39 z m 0,272.13 c -62.625,0 -113.387,-50.77 -113.387,-113.39 0,-62.62 50.762,-113.39 113.387,-113.39 62.621,0 113.383,50.77 113.383,113.39 0,62.62 -50.762,113.39 -113.383,113.39 z m 272.121,0 c -62.621,0 -113.383,-50.77 -113.383,-113.39 0,-62.62 50.762,-113.39 113.383,-113.39 62.625,0 113.387,50.77 113.387,113.39 0,62.62 -50.762,113.39 -113.387,113.39 z m 272.125,0 c -62.621,0 -113.383,-50.77 -113.383,-113.39 0,-62.62 50.762,-113.39 113.383,-113.39 62.621,0 113.388,50.77 113.388,113.39 0,62.62 -50.767,113.39 -113.388,113.39 z m 0,-272.13 c -62.621,0 -113.383,-50.76 -113.383,-113.39 0,-62.62 50.762,-113.38 113.383,-113.38 62.621,0 113.388,50.76 113.388,113.38 0,62.63 -50.767,113.39 -113.388,113.39 z m -430.863,-2.29 0,49.94 c -9.399,-9.6 -20.004,-18 -31.575,-24.97 11.571,-6.97 22.176,-15.37 31.575,-24.97 z m 319.769,2.29 -161.031,0 c -44.418,0 -84.574,18.24 -113.383,47.65 l 0,-161.04 c 0,-44.41 -18.246,-84.57 -47.648,-113.38 l 161.031,0 c 30.238,0 30.238,-45.35 0,-45.35 l -161.031,0 c 29.402,-28.82 47.648,-68.973 47.648,-113.387 0,-87.672 -71.07,-158.742 -158.738,-158.742 -87.672,0 -158.742,71.07 -158.742,158.742 0,57.747 30.832,108.287 76.929,136.057 -46.097,27.78 -76.929,78.32 -76.929,136.06 0,57.75 30.832,108.29 76.929,136.07 -46.097,27.77 -76.929,78.32 -76.929,136.06 0,87.67 71.07,158.74 158.742,158.74 57.742,0 108.281,-30.83 136.058,-76.93 27.778,46.1 78.321,76.93 136.063,76.93 57.742,0 108.285,-30.83 136.062,-76.93 27.778,46.1 78.321,76.93 136.063,76.93 87.668,0 158.738,-71.07 158.738,-158.74 0,-57.74 -30.83,-108.29 -76.93,-136.06 46.1,-27.78 76.93,-78.32 76.93,-136.07 0,-87.66 -71.07,-158.73 -158.738,-158.73 -87.668,0 -158.738,71.07 -158.738,158.73 0,44.43 18.242,84.58 47.644,113.39 z m -49.933,45.35 49.933,0 c -9.594,9.4 -17.996,20.01 -24.969,31.58 -6.968,-11.57 -15.371,-22.18 -24.964,-31.58"
         style="fill:#ffffff;fill-opacity:1;fill-rule:nonzero;stroke:none"
         id="path18"
         inkscape:connector-curvature="0" /><path
         d="m 1031.31,819.391 0,408.179 c 0,30.24 45.35,30.24 45.35,0 l 0,-408.179 c 0,-30.239 -45.35,-30.239 -45.35,0 z"
         style="fill:none;stroke:#ffffff;stroke-width:41.99499893;stroke-linecap:butt;stroke-linejoin:miter;stroke-miterlimit:3.8636899;stroke-opacity:1;stroke-dasharray:none"
         id="path20"
         inkscape:connector-curvature="0" /><path
         d="m 1031.31,819.391 0,408.179 c 0,30.24 45.35,30.24 45.35,0 l 0,-408.179 c 0,-30.239 -45.35,-30.239 -45.35,0"
         style="fill:#1a3665;fill-opacity:1;fill-rule:nonzero;stroke:none"
         id="path22"
         inkscape:connector-curvature="0" /><path
         d="m 917.922,1114.19 c 87.668,0 158.738,-71.07 158.738,-158.737 0,-87.672 -71.07,-158.742 -158.738,-158.742 -87.668,0 -158.738,71.07 -158.738,158.742 l 0,272.117 c 0,30.24 45.355,30.24 45.355,0 l 0,-161.02 c 28.809,29.4 68.965,47.64 113.383,47.64 z"
         style="fill:none;stroke:#ffffff;stroke-width:41.99499893;stroke-linecap:butt;stroke-linejoin:miter;stroke-miterlimit:3.8636899;stroke-opacity:1;stroke-dasharray:none"
         id="path24"
         inkscape:connector-curvature="0" /><path
         d="m 917.922,1068.84 c -62.621,0 -113.383,-50.77 -113.383,-113.387 0,-62.621 50.762,-113.387 113.383,-113.387 62.621,0 113.388,50.766 113.388,113.387 0,62.617 -50.767,113.387 -113.388,113.387 z"
         style="fill:none;stroke:#ffffff;stroke-width:41.99499893;stroke-linecap:butt;stroke-linejoin:miter;stroke-miterlimit:3.8636899;stroke-opacity:1;stroke-dasharray:none"
         id="path26"
         inkscape:connector-curvature="0" /><path
         d="m 917.922,1114.19 c 87.668,0 158.738,-71.07 158.738,-158.737 0,-87.672 -71.07,-158.742 -158.738,-158.742 -87.668,0 -158.738,71.07 -158.738,158.742 l 0,272.117 c 0,30.24 45.355,30.24 45.355,0 l 0,-161.02 c 28.809,29.4 68.965,47.64 113.383,47.64 z m 0,-45.35 c -62.621,0 -113.383,-50.77 -113.383,-113.387 0,-62.621 50.762,-113.387 113.383,-113.387 62.621,0 113.388,50.766 113.388,113.387 0,62.617 -50.767,113.387 -113.388,113.387"
         style="fill:#1a3665;fill-opacity:1;fill-rule:nonzero;stroke:none"
         id="path28"
         inkscape:connector-curvature="0" /><path
         d="m 799.832,916.961 c -17.207,-69.059 -79.613,-120.25 -154.035,-120.25 -87.668,0 -158.738,71.07 -158.738,158.742 0,87.667 71.07,158.737 158.738,158.737 74.422,0 136.828,-51.19 154.035,-120.249 7.313,-29.336 -36.695,-40.304 -44.008,-10.964 -12.293,49.333 -56.922,85.863 -110.027,85.863 -62.621,0 -113.383,-50.77 -113.383,-113.387 0,-62.621 50.762,-113.387 113.383,-113.387 53.105,0 97.734,36.532 110.027,85.86 7.313,29.34 51.321,18.371 44.008,-10.965 z"
         style="fill:none;stroke:#ffffff;stroke-width:41.99499893;stroke-linecap:butt;stroke-linejoin:miter;stroke-miterlimit:3.8636899;stroke-opacity:1;stroke-dasharray:none"
         id="path30"
         inkscape:connector-curvature="0" /><path
         d="m 799.832,916.961 c -17.207,-69.059 -79.613,-120.25 -154.035,-120.25 -87.668,0 -158.738,71.07 -158.738,158.742 0,87.667 71.07,158.737 158.738,158.737 74.422,0 136.828,-51.19 154.035,-120.249 7.313,-29.336 -36.695,-40.304 -44.008,-10.964 -12.293,49.333 -56.922,85.863 -110.027,85.863 -62.621,0 -113.383,-50.77 -113.383,-113.387 0,-62.621 50.762,-113.387 113.383,-113.387 53.105,0 97.734,36.532 110.027,85.86 7.313,29.34 51.321,18.371 44.008,-10.965"
         style="fill:#1a3665;fill-opacity:1;fill-rule:nonzero;stroke:none"
         id="path32"
         inkscape:connector-curvature="0" /></g></g></svg>